<svg width="1728" height="1745" viewBox="0 0 1728 1745" fill="none" xmlns="http://www.w3.org/2000/svg">
    <g clip-path="url(#clip0_348_30)">
        <rect width="1728" height="1745" fill="#F6F7FB"/>
        <path d="M187.172 250.09C328.588 264.603 429.517 395.06 569.834 417.861C753.965 447.783 991.363 264.277 1117.9 401.334C1240.48 534.103 1068.57 748.319 1039.63 926.703C1019.12 1053.12 1005.86 1173.44 972.567 1297.11C930.473 1453.5 933.511 1633.36 818.675 1747.56C695.414 1870.14 507.592 1972.24 339.984 1926.19C168.8 1879.15 149.193 1630.72 6.94311 1524.51C-127.882 1423.85 -381.415 1489.62 -450.33 1336.12C-518.529 1184.22 -301.966 1041.25 -284.362 875.659C-264.417 688.044 -456.324 474.874 -342.753 324.203C-233.169 178.822 6.08068 231.504 187.172 250.09Z" fill="#FCFCFC"/>
        <path d="M1713.34 312.139C1711.1 312.139 1709.27 310.309 1709.27 308.069C1709.27 305.83 1711.1 304 1713.34 304C1715.58 304 1717.41 305.83 1717.41 308.069C1717.41 310.309 1715.58 312.139 1713.34 312.139Z" fill="#4BB3EE"/>
        <path d="M1713.34 348.739C1711.1 348.739 1709.27 346.909 1709.27 344.669C1709.27 342.43 1711.1 340.6 1713.34 340.6C1715.58 340.6 1717.41 342.43 1717.41 344.669C1717.41 346.909 1715.58 348.739 1713.34 348.739Z" fill="#4BB3EE"/>
        <path d="M1713.34 385.339C1711.1 385.339 1709.27 383.509 1709.27 381.269C1709.27 379.03 1711.1 377.2 1713.34 377.2C1715.58 377.2 1717.41 379.03 1717.41 381.269C1717.41 383.509 1715.58 385.339 1713.34 385.339Z" fill="#4BB3EE"/>
        <path d="M1713.34 421.939C1711.1 421.939 1709.27 420.109 1709.27 417.87C1709.27 415.63 1711.1 413.8 1713.34 413.8C1715.58 413.8 1717.41 415.63 1717.41 417.87C1717.41 420.109 1715.58 421.939 1713.34 421.939Z" fill="#4BB3EE"/>
        <path d="M1713.34 458.539C1711.1 458.539 1709.27 456.709 1709.27 454.469C1709.27 452.23 1711.1 450.4 1713.34 450.4C1715.58 450.4 1717.41 452.23 1717.41 454.469C1717.41 456.709 1715.58 458.539 1713.34 458.539Z" fill="#4BB3EE"/>
        <path d="M1713.34 495.138C1711.1 495.138 1709.27 493.308 1709.27 491.069C1709.27 488.83 1711.1 487 1713.34 487C1715.58 487 1717.41 488.83 1717.41 491.069C1717.41 493.308 1715.58 495.138 1713.34 495.138Z" fill="#4BB3EE"/>
        <path d="M1713.34 531.738C1711.1 531.738 1709.27 529.908 1709.27 527.669C1709.27 525.43 1711.1 523.6 1713.34 523.6C1715.58 523.6 1717.41 525.43 1717.41 527.669C1717.41 529.908 1715.58 531.738 1713.34 531.738Z" fill="#4BB3EE"/>
        <path d="M1713.34 568.338C1711.1 568.338 1709.27 566.508 1709.27 564.269C1709.27 562.03 1711.1 560.2 1713.34 560.2C1715.58 560.2 1717.41 562.03 1717.41 564.269C1717.41 566.508 1715.58 568.338 1713.34 568.338Z" fill="#4BB3EE"/>
        <path d="M1713.34 604.939C1711.1 604.939 1709.27 603.109 1709.27 600.869C1709.27 598.63 1711.1 596.8 1713.34 596.8C1715.58 596.8 1717.41 598.63 1717.41 600.869C1717.41 603.109 1715.58 604.939 1713.34 604.939Z" fill="#4BB3EE"/>
        <path d="M1713.34 641.538C1711.1 641.538 1709.27 639.708 1709.27 637.469C1709.27 635.23 1711.1 633.4 1713.34 633.4C1715.58 633.4 1717.41 635.23 1717.41 637.469C1717.41 639.708 1715.58 641.538 1713.34 641.538Z" fill="#4BB3EE"/>
        <path d="M1713.34 678.138C1711.1 678.138 1709.27 676.308 1709.27 674.069C1709.27 671.83 1711.1 670 1713.34 670C1715.58 670 1717.41 671.83 1717.41 674.069C1717.41 676.308 1715.58 678.138 1713.34 678.138Z" fill="#4BB3EE"/>
        <path d="M1680.81 312.139C1678.57 312.139 1676.74 310.309 1676.74 308.069C1676.74 305.83 1678.57 304 1680.81 304C1683.05 304 1684.88 305.83 1684.88 308.069C1684.88 310.309 1683.05 312.139 1680.81 312.139Z" fill="#4BB3EE"/>
        <path d="M1680.81 348.739C1678.57 348.739 1676.74 346.909 1676.74 344.669C1676.74 342.43 1678.57 340.6 1680.81 340.6C1683.05 340.6 1684.88 342.43 1684.88 344.669C1684.88 346.909 1683.05 348.739 1680.81 348.739Z" fill="#4BB3EE"/>
        <path d="M1680.81 385.339C1678.57 385.339 1676.74 383.509 1676.74 381.269C1676.74 379.03 1678.57 377.2 1680.81 377.2C1683.05 377.2 1684.88 379.03 1684.88 381.269C1684.88 383.509 1683.05 385.339 1680.81 385.339Z" fill="#4BB3EE"/>
        <path d="M1680.81 421.939C1678.57 421.939 1676.74 420.109 1676.74 417.87C1676.74 415.63 1678.57 413.8 1680.81 413.8C1683.05 413.8 1684.88 415.63 1684.88 417.87C1684.88 420.109 1683.05 421.939 1680.81 421.939Z" fill="#4BB3EE"/>
        <path d="M1680.81 458.539C1678.57 458.539 1676.74 456.709 1676.74 454.469C1676.74 452.23 1678.57 450.4 1680.81 450.4C1683.05 450.4 1684.88 452.23 1684.88 454.469C1684.88 456.709 1683.05 458.539 1680.81 458.539Z" fill="#4BB3EE"/>
        <path d="M1680.81 495.138C1678.57 495.138 1676.74 493.308 1676.74 491.069C1676.74 488.83 1678.57 487 1680.81 487C1683.05 487 1684.88 488.83 1684.88 491.069C1684.88 493.308 1683.05 495.138 1680.81 495.138Z" fill="#4BB3EE"/>
        <path d="M1680.81 531.738C1678.57 531.738 1676.74 529.908 1676.74 527.669C1676.74 525.43 1678.57 523.6 1680.81 523.6C1683.05 523.6 1684.88 525.43 1684.88 527.669C1684.88 529.908 1683.05 531.738 1680.81 531.738Z" fill="#4BB3EE"/>
        <path d="M1680.81 568.338C1678.57 568.338 1676.74 566.508 1676.74 564.269C1676.74 562.03 1678.57 560.2 1680.81 560.2C1683.05 560.2 1684.88 562.03 1684.88 564.269C1684.88 566.508 1683.05 568.338 1680.81 568.338Z" fill="#4BB3EE"/>
        <path d="M1680.81 604.939C1678.57 604.939 1676.74 603.109 1676.74 600.87C1676.74 598.63 1678.57 596.8 1680.81 596.8C1683.05 596.8 1684.88 598.63 1684.88 600.87C1684.88 603.109 1683.05 604.939 1680.81 604.939Z" fill="#4BB3EE"/>
        <path d="M1680.81 641.538C1678.57 641.538 1676.74 639.708 1676.74 637.469C1676.74 635.23 1678.57 633.4 1680.81 633.4C1683.05 633.4 1684.88 635.23 1684.88 637.469C1684.88 639.708 1683.05 641.538 1680.81 641.538Z" fill="#4BB3EE"/>
        <path d="M1680.81 678.138C1678.57 678.138 1676.74 676.308 1676.74 674.069C1676.74 671.83 1678.57 670 1680.81 670C1683.05 670 1684.88 671.83 1684.88 674.069C1684.88 676.308 1683.05 678.138 1680.81 678.138Z" fill="#4BB3EE"/>
        <path d="M1648.28 312.139C1646.04 312.139 1644.21 310.309 1644.21 308.069C1644.21 305.83 1646.04 304 1648.28 304C1650.52 304 1652.35 305.83 1652.35 308.069C1652.35 310.309 1650.52 312.139 1648.28 312.139Z" fill="#4BB3EE"/>
        <path d="M1648.28 348.739C1646.04 348.739 1644.21 346.909 1644.21 344.669C1644.21 342.43 1646.04 340.6 1648.28 340.6C1650.52 340.6 1652.35 342.43 1652.35 344.669C1652.35 346.909 1650.52 348.739 1648.28 348.739Z" fill="#4BB3EE"/>
        <path d="M1648.28 385.339C1646.04 385.339 1644.21 383.509 1644.21 381.269C1644.21 379.03 1646.04 377.2 1648.28 377.2C1650.52 377.2 1652.35 379.03 1652.35 381.269C1652.35 383.509 1650.52 385.339 1648.28 385.339Z" fill="#4BB3EE"/>
        <path d="M1648.28 421.939C1646.04 421.939 1644.21 420.109 1644.21 417.87C1644.21 415.63 1646.04 413.8 1648.28 413.8C1650.52 413.8 1652.35 415.63 1652.35 417.87C1652.35 420.109 1650.52 421.939 1648.28 421.939Z" fill="#4BB3EE"/>
        <path d="M1648.28 458.539C1646.04 458.539 1644.21 456.709 1644.21 454.469C1644.21 452.23 1646.04 450.4 1648.28 450.4C1650.52 450.4 1652.35 452.23 1652.35 454.469C1652.35 456.709 1650.52 458.539 1648.28 458.539Z" fill="#4BB3EE"/>
        <path d="M1648.28 495.138C1646.04 495.138 1644.21 493.308 1644.21 491.069C1644.21 488.83 1646.04 487 1648.28 487C1650.52 487 1652.35 488.83 1652.35 491.069C1652.35 493.308 1650.52 495.138 1648.28 495.138Z" fill="#4BB3EE"/>
        <path d="M1648.28 531.738C1646.04 531.738 1644.21 529.908 1644.21 527.669C1644.21 525.43 1646.04 523.6 1648.28 523.6C1650.52 523.6 1652.35 525.43 1652.35 527.669C1652.35 529.908 1650.52 531.738 1648.28 531.738Z" fill="#4BB3EE"/>
        <path d="M1648.28 568.338C1646.04 568.338 1644.21 566.508 1644.21 564.269C1644.21 562.03 1646.04 560.2 1648.28 560.2C1650.52 560.2 1652.35 562.03 1652.35 564.269C1652.35 566.508 1650.52 568.338 1648.28 568.338Z" fill="#4BB3EE"/>
        <path d="M1648.28 604.939C1646.04 604.939 1644.21 603.109 1644.21 600.87C1644.21 598.63 1646.04 596.8 1648.28 596.8C1650.52 596.8 1652.35 598.63 1652.35 600.87C1652.35 603.109 1650.52 604.939 1648.28 604.939Z" fill="#4BB3EE"/>
        <path d="M1648.28 641.538C1646.04 641.538 1644.21 639.708 1644.21 637.469C1644.21 635.23 1646.04 633.4 1648.28 633.4C1650.52 633.4 1652.35 635.23 1652.35 637.469C1652.35 639.708 1650.52 641.538 1648.28 641.538Z" fill="#4BB3EE"/>
        <path d="M1648.28 678.138C1646.04 678.138 1644.21 676.308 1644.21 674.069C1644.21 671.83 1646.04 670 1648.28 670C1650.52 670 1652.35 671.83 1652.35 674.069C1652.35 676.308 1650.52 678.138 1648.28 678.138Z" fill="#4BB3EE"/>
        <path d="M1611.68 308.069C1611.68 310.317 1613.5 312.139 1615.75 312.139C1617.99 312.139 1619.82 310.317 1619.82 308.069C1619.82 305.822 1617.99 304 1615.75 304C1613.5 304 1611.68 305.822 1611.68 308.069Z" fill="#4BB3EE"/>
        <path d="M1611.68 344.669C1611.68 346.917 1613.5 348.739 1615.75 348.739C1617.99 348.739 1619.82 346.917 1619.82 344.669C1619.82 342.422 1617.99 340.6 1615.75 340.6C1613.5 340.6 1611.68 342.422 1611.68 344.669Z" fill="#4BB3EE"/>
        <path d="M1611.68 381.269C1611.68 383.517 1613.5 385.339 1615.75 385.339C1617.99 385.339 1619.82 383.517 1619.82 381.269C1619.82 379.022 1617.99 377.2 1615.75 377.2C1613.5 377.2 1611.68 379.022 1611.68 381.269Z" fill="#4BB3EE"/>
        <path d="M1615.75 421.939C1613.51 421.939 1611.68 420.109 1611.68 417.87C1611.68 415.63 1613.51 413.8 1615.75 413.8C1617.99 413.8 1619.82 415.63 1619.82 417.87C1619.79 420.109 1617.99 421.939 1615.75 421.939Z" fill="#4BB3EE"/>
        <path d="M1615.75 458.539C1613.51 458.539 1611.68 456.709 1611.68 454.469C1611.68 452.23 1613.51 450.4 1615.75 450.4C1617.99 450.4 1619.82 452.23 1619.82 454.469C1619.79 456.709 1617.99 458.539 1615.75 458.539Z" fill="#4BB3EE"/>
        <path d="M1611.68 491.069C1611.68 493.316 1613.5 495.138 1615.75 495.138C1617.99 495.138 1619.82 493.316 1619.82 491.069C1619.82 488.822 1617.99 487 1615.75 487C1613.5 487 1611.68 488.822 1611.68 491.069Z" fill="#4BB3EE"/>
        <path d="M1611.68 527.669C1611.68 529.916 1613.5 531.738 1615.75 531.738C1617.99 531.738 1619.82 529.916 1619.82 527.669C1619.82 525.422 1617.99 523.6 1615.75 523.6C1613.5 523.6 1611.68 525.422 1611.68 527.669Z" fill="#4BB3EE"/>
        <path d="M1611.68 564.269C1611.68 566.516 1613.5 568.338 1615.75 568.338C1617.99 568.338 1619.82 566.516 1619.82 564.269C1619.82 562.022 1617.99 560.2 1615.75 560.2C1613.5 560.2 1611.68 562.022 1611.68 564.269Z" fill="#4BB3EE"/>
        <path d="M1611.68 600.869C1611.68 603.117 1613.5 604.939 1615.75 604.939C1617.99 604.939 1619.82 603.117 1619.82 600.869C1619.82 598.622 1617.99 596.8 1615.75 596.8C1613.5 596.8 1611.68 598.622 1611.68 600.869Z" fill="#4BB3EE"/>
        <path d="M1611.68 637.469C1611.68 639.716 1613.5 641.538 1615.75 641.538C1617.99 641.538 1619.82 639.716 1619.82 637.469C1619.82 635.222 1617.99 633.4 1615.75 633.4C1613.5 633.4 1611.68 635.222 1611.68 637.469Z" fill="#4BB3EE"/>
        <path d="M1611.68 674.069C1611.68 676.316 1613.5 678.138 1615.75 678.138C1617.99 678.138 1619.82 676.316 1619.82 674.069C1619.82 671.822 1617.99 670 1615.75 670C1613.5 670 1611.68 671.822 1611.68 674.069Z" fill="#4BB3EE"/>
        <path d="M1583.19 312.139C1580.95 312.139 1579.12 310.309 1579.12 308.069C1579.12 305.83 1580.95 304 1583.19 304C1585.43 304 1587.26 305.83 1587.26 308.069C1587.26 310.309 1585.46 312.139 1583.19 312.139Z" fill="#4BB3EE"/>
        <path d="M1583.19 348.739C1580.95 348.739 1579.12 346.909 1579.12 344.669C1579.12 342.43 1580.95 340.6 1583.19 340.6C1585.43 340.6 1587.26 342.43 1587.26 344.669C1587.26 346.909 1585.46 348.739 1583.19 348.739Z" fill="#4BB3EE"/>
        <path d="M1583.19 385.339C1580.95 385.339 1579.12 383.509 1579.12 381.269C1579.12 379.03 1580.95 377.2 1583.19 377.2C1585.43 377.2 1587.26 379.03 1587.26 381.269C1587.26 383.509 1585.46 385.339 1583.19 385.339Z" fill="#4BB3EE"/>
        <path d="M1583.19 421.939C1580.95 421.939 1579.12 420.109 1579.12 417.87C1579.12 415.63 1580.95 413.8 1583.19 413.8C1585.43 413.8 1587.26 415.63 1587.26 417.87C1587.26 420.109 1585.46 421.939 1583.19 421.939Z" fill="#4BB3EE"/>
        <path d="M1583.19 458.539C1580.95 458.539 1579.12 456.709 1579.12 454.469C1579.12 452.23 1580.95 450.4 1583.19 450.4C1585.43 450.4 1587.26 452.23 1587.26 454.469C1587.26 456.709 1585.46 458.539 1583.19 458.539Z" fill="#4BB3EE"/>
        <path d="M1583.19 495.138C1580.95 495.138 1579.12 493.308 1579.12 491.069C1579.12 488.83 1580.95 487 1583.19 487C1585.43 487 1587.26 488.83 1587.26 491.069C1587.26 493.308 1585.46 495.138 1583.19 495.138Z" fill="#4BB3EE"/>
        <path d="M1583.19 531.738C1580.95 531.738 1579.12 529.908 1579.12 527.669C1579.12 525.43 1580.95 523.6 1583.19 523.6C1585.43 523.6 1587.26 525.43 1587.26 527.669C1587.26 529.908 1585.46 531.738 1583.19 531.738Z" fill="#4BB3EE"/>
        <path d="M1583.19 568.338C1580.95 568.338 1579.12 566.508 1579.12 564.269C1579.12 562.03 1580.95 560.2 1583.19 560.2C1585.43 560.2 1587.26 562.03 1587.26 564.269C1587.26 566.508 1585.46 568.338 1583.19 568.338Z" fill="#4BB3EE"/>
        <path d="M1583.19 604.939C1580.95 604.939 1579.12 603.109 1579.12 600.87C1579.12 598.63 1580.95 596.8 1583.19 596.8C1585.43 596.8 1587.26 598.63 1587.26 600.87C1587.26 603.109 1585.46 604.939 1583.19 604.939Z" fill="#4BB3EE"/>
        <path d="M1583.19 641.538C1580.95 641.538 1579.12 639.708 1579.12 637.469C1579.12 635.23 1580.95 633.4 1583.19 633.4C1585.43 633.4 1587.26 635.23 1587.26 637.469C1587.26 639.708 1585.46 641.538 1583.19 641.538Z" fill="#4BB3EE"/>
        <path d="M1583.19 678.138C1580.95 678.138 1579.12 676.308 1579.12 674.069C1579.12 671.83 1580.95 670 1583.19 670C1585.43 670 1587.26 671.83 1587.26 674.069C1587.26 676.308 1585.46 678.138 1583.19 678.138Z" fill="#4BB3EE"/>
        <path d="M1550.66 312.139C1548.42 312.139 1546.59 310.309 1546.59 308.069C1546.59 305.83 1548.42 304 1550.66 304C1552.9 304 1554.73 305.83 1554.73 308.069C1554.73 310.309 1552.92 312.139 1550.66 312.139Z" fill="#4BB3EE"/>
        <path d="M1550.66 348.739C1548.42 348.739 1546.59 346.909 1546.59 344.669C1546.59 342.43 1548.42 340.6 1550.66 340.6C1552.9 340.6 1554.73 342.43 1554.73 344.669C1554.73 346.909 1552.92 348.739 1550.66 348.739Z" fill="#4BB3EE"/>
        <path d="M1550.66 385.339C1548.42 385.339 1546.59 383.509 1546.59 381.269C1546.59 379.03 1548.42 377.2 1550.66 377.2C1552.9 377.2 1554.73 379.03 1554.73 381.269C1554.73 383.509 1552.92 385.339 1550.66 385.339Z" fill="#4BB3EE"/>
        <path d="M1550.66 421.939C1548.42 421.939 1546.59 420.109 1546.59 417.87C1546.59 415.63 1548.42 413.8 1550.66 413.8C1552.9 413.8 1554.73 415.63 1554.73 417.87C1554.73 420.109 1552.92 421.939 1550.66 421.939Z" fill="#4BB3EE"/>
        <path d="M1550.66 458.539C1548.42 458.539 1546.59 456.709 1546.59 454.469C1546.59 452.23 1548.42 450.4 1550.66 450.4C1552.9 450.4 1554.73 452.23 1554.73 454.469C1554.73 456.709 1552.92 458.539 1550.66 458.539Z" fill="#4BB3EE"/>
        <path d="M1550.66 495.138C1548.42 495.138 1546.59 493.308 1546.59 491.069C1546.59 488.83 1548.42 487 1550.66 487C1552.9 487 1554.73 488.83 1554.73 491.069C1554.73 493.308 1552.92 495.138 1550.66 495.138Z" fill="#4BB3EE"/>
        <path d="M1550.66 531.738C1548.42 531.738 1546.59 529.908 1546.59 527.669C1546.59 525.43 1548.42 523.6 1550.66 523.6C1552.9 523.6 1554.73 525.43 1554.73 527.669C1554.73 529.908 1552.92 531.738 1550.66 531.738Z" fill="#4BB3EE"/>
        <path d="M1550.66 568.338C1548.42 568.338 1546.59 566.508 1546.59 564.269C1546.59 562.03 1548.42 560.2 1550.66 560.2C1552.9 560.2 1554.73 562.03 1554.73 564.269C1554.73 566.508 1552.92 568.338 1550.66 568.338Z" fill="#4BB3EE"/>
        <path d="M1550.66 604.939C1548.42 604.939 1546.59 603.109 1546.59 600.87C1546.59 598.63 1548.42 596.8 1550.66 596.8C1552.9 596.8 1554.73 598.63 1554.73 600.87C1554.73 603.109 1552.92 604.939 1550.66 604.939Z" fill="#4BB3EE"/>
        <path d="M1550.66 641.538C1548.42 641.538 1546.59 639.708 1546.59 637.469C1546.59 635.23 1548.42 633.4 1550.66 633.4C1552.9 633.4 1554.73 635.23 1554.73 637.469C1554.73 639.708 1552.92 641.538 1550.66 641.538Z" fill="#4BB3EE"/>
        <path d="M1550.66 678.138C1548.42 678.138 1546.59 676.308 1546.59 674.069C1546.59 671.83 1548.42 670 1550.66 670C1552.9 670 1554.73 671.83 1554.73 674.069C1554.73 676.308 1552.92 678.138 1550.66 678.138Z" fill="#4BB3EE"/>
        <path d="M1518.13 312.139C1515.89 312.139 1514.06 310.309 1514.06 308.069C1514.06 305.83 1515.89 304 1518.13 304C1520.37 304 1522.2 305.83 1522.2 308.069C1522.2 310.309 1520.37 312.139 1518.13 312.139Z" fill="#4BB3EE"/>
        <path d="M1518.13 348.739C1515.89 348.739 1514.06 346.909 1514.06 344.669C1514.06 342.43 1515.89 340.6 1518.13 340.6C1520.37 340.6 1522.2 342.43 1522.2 344.669C1522.2 346.909 1520.37 348.739 1518.13 348.739Z" fill="#4BB3EE"/>
        <path d="M1518.13 385.339C1515.89 385.339 1514.06 383.509 1514.06 381.269C1514.06 379.03 1515.89 377.2 1518.13 377.2C1520.37 377.2 1522.2 379.03 1522.2 381.269C1522.2 383.509 1520.37 385.339 1518.13 385.339Z" fill="#4BB3EE"/>
        <path d="M1518.13 421.939C1515.89 421.939 1514.06 420.109 1514.06 417.87C1514.06 415.63 1515.89 413.8 1518.13 413.8C1520.37 413.8 1522.2 415.63 1522.2 417.87C1522.2 420.109 1520.37 421.939 1518.13 421.939Z" fill="#4BB3EE"/>
        <path d="M1518.13 458.539C1515.89 458.539 1514.06 456.709 1514.06 454.469C1514.06 452.23 1515.89 450.4 1518.13 450.4C1520.37 450.4 1522.2 452.23 1522.2 454.469C1522.2 456.709 1520.37 458.539 1518.13 458.539Z" fill="#4BB3EE"/>
        <path d="M1518.13 495.138C1515.89 495.138 1514.06 493.308 1514.06 491.069C1514.06 488.83 1515.89 487 1518.13 487C1520.37 487 1522.2 488.83 1522.2 491.069C1522.2 493.308 1520.37 495.138 1518.13 495.138Z" fill="#4BB3EE"/>
        <path d="M1518.13 531.738C1515.89 531.738 1514.06 529.908 1514.06 527.669C1514.06 525.43 1515.89 523.6 1518.13 523.6C1520.37 523.6 1522.2 525.43 1522.2 527.669C1522.2 529.908 1520.37 531.738 1518.13 531.738Z" fill="#4BB3EE"/>
        <path d="M1518.13 568.338C1515.89 568.338 1514.06 566.508 1514.06 564.269C1514.06 562.03 1515.89 560.2 1518.13 560.2C1520.37 560.2 1522.2 562.03 1522.2 564.269C1522.2 566.508 1520.37 568.338 1518.13 568.338Z" fill="#4BB3EE"/>
        <path d="M1518.13 604.939C1515.89 604.939 1514.06 603.109 1514.06 600.869C1514.06 598.63 1515.89 596.8 1518.13 596.8C1520.37 596.8 1522.2 598.63 1522.2 600.869C1522.2 603.109 1520.37 604.939 1518.13 604.939Z" fill="#4BB3EE"/>
        <path d="M1518.13 641.538C1515.89 641.538 1514.06 639.708 1514.06 637.469C1514.06 635.23 1515.89 633.4 1518.13 633.4C1520.37 633.4 1522.2 635.23 1522.2 637.469C1522.2 639.708 1520.37 641.538 1518.13 641.538Z" fill="#4BB3EE"/>
        <path d="M1518.13 678.138C1515.89 678.138 1514.06 676.308 1514.06 674.069C1514.06 671.83 1515.89 670 1518.13 670C1520.37 670 1522.2 671.83 1522.2 674.069C1522.2 676.308 1520.37 678.138 1518.13 678.138Z" fill="#4BB3EE"/>
        <path d="M1481.53 308.069C1481.53 310.317 1483.35 312.139 1485.6 312.139C1487.85 312.139 1489.67 310.317 1489.67 308.069C1489.67 305.822 1487.85 304 1485.6 304C1483.35 304 1481.53 305.822 1481.53 308.069Z" fill="#4BB3EE"/>
        <path d="M1481.53 344.669C1481.53 346.917 1483.35 348.739 1485.6 348.739C1487.85 348.739 1489.67 346.917 1489.67 344.669C1489.67 342.422 1487.85 340.6 1485.6 340.6C1483.35 340.6 1481.53 342.422 1481.53 344.669Z" fill="#4BB3EE"/>
        <path d="M1481.53 381.269C1481.53 383.517 1483.35 385.339 1485.6 385.339C1487.85 385.339 1489.67 383.517 1489.67 381.269C1489.67 379.022 1487.85 377.2 1485.6 377.2C1483.35 377.2 1481.53 379.022 1481.53 381.269Z" fill="#4BB3EE"/>
        <path d="M1485.6 421.939C1483.36 421.939 1481.53 420.109 1481.53 417.87C1481.53 415.63 1483.36 413.8 1485.6 413.8C1487.84 413.8 1489.67 415.63 1489.67 417.87C1489.67 420.109 1487.84 421.939 1485.6 421.939Z" fill="#4BB3EE"/>
        <path d="M1485.6 458.539C1483.36 458.539 1481.53 456.709 1481.53 454.469C1481.53 452.23 1483.36 450.4 1485.6 450.4C1487.84 450.4 1489.67 452.23 1489.67 454.469C1489.67 456.709 1487.84 458.539 1485.6 458.539Z" fill="#4BB3EE"/>
        <path d="M1481.53 491.069C1481.53 493.316 1483.35 495.138 1485.6 495.138C1487.85 495.138 1489.67 493.316 1489.67 491.069C1489.67 488.822 1487.85 487 1485.6 487C1483.35 487 1481.53 488.822 1481.53 491.069Z" fill="#4BB3EE"/>
        <path d="M1481.53 527.669C1481.53 529.916 1483.35 531.738 1485.6 531.738C1487.85 531.738 1489.67 529.916 1489.67 527.669C1489.67 525.422 1487.85 523.6 1485.6 523.6C1483.35 523.6 1481.53 525.422 1481.53 527.669Z" fill="#4BB3EE"/>
        <path d="M1481.53 564.269C1481.53 566.516 1483.35 568.338 1485.6 568.338C1487.85 568.338 1489.67 566.516 1489.67 564.269C1489.67 562.022 1487.85 560.2 1485.6 560.2C1483.35 560.2 1481.53 562.022 1481.53 564.269Z" fill="#4BB3EE"/>
        <path d="M1481.53 600.87C1481.53 603.117 1483.35 604.939 1485.6 604.939C1487.85 604.939 1489.67 603.117 1489.67 600.87C1489.67 598.622 1487.85 596.8 1485.6 596.8C1483.35 596.8 1481.53 598.622 1481.53 600.87Z" fill="#4BB3EE"/>
        <path d="M1481.53 637.469C1481.53 639.716 1483.35 641.538 1485.6 641.538C1487.85 641.538 1489.67 639.716 1489.67 637.469C1489.67 635.222 1487.85 633.4 1485.6 633.4C1483.35 633.4 1481.53 635.222 1481.53 637.469Z" fill="#4BB3EE"/>
        <path d="M1481.53 674.069C1481.53 676.316 1483.35 678.138 1485.6 678.138C1487.85 678.138 1489.67 676.316 1489.67 674.069C1489.67 671.822 1487.85 670 1485.6 670C1483.35 670 1481.53 671.822 1481.53 674.069Z" fill="#4BB3EE"/>
        <path d="M1453.07 312.139C1450.83 312.139 1449 310.309 1449 308.069C1449 305.83 1450.83 304 1453.07 304C1455.31 304 1457.14 305.83 1457.14 308.069C1457.14 310.309 1455.31 312.139 1453.07 312.139Z" fill="#4BB3EE"/>
        <path d="M1453.07 348.739C1450.83 348.739 1449 346.909 1449 344.669C1449 342.43 1450.83 340.6 1453.07 340.6C1455.31 340.6 1457.14 342.43 1457.14 344.669C1457.14 346.909 1455.31 348.739 1453.07 348.739Z" fill="#4BB3EE"/>
        <path d="M1453.07 385.339C1450.83 385.339 1449 383.509 1449 381.269C1449 379.03 1450.83 377.2 1453.07 377.2C1455.31 377.2 1457.14 379.03 1457.14 381.269C1457.14 383.509 1455.31 385.339 1453.07 385.339Z" fill="#4BB3EE"/>
        <path d="M1453.07 421.939C1450.83 421.939 1449 420.109 1449 417.87C1449 415.63 1450.83 413.8 1453.07 413.8C1455.31 413.8 1457.14 415.63 1457.14 417.87C1457.14 420.109 1455.31 421.939 1453.07 421.939Z" fill="#4BB3EE"/>
        <path d="M1453.07 458.539C1450.83 458.539 1449 456.709 1449 454.469C1449 452.23 1450.83 450.4 1453.07 450.4C1455.31 450.4 1457.14 452.23 1457.14 454.469C1457.14 456.709 1455.31 458.539 1453.07 458.539Z" fill="#4BB3EE"/>
        <path d="M1453.07 495.138C1450.83 495.138 1449 493.308 1449 491.069C1449 488.83 1450.83 487 1453.07 487C1455.31 487 1457.14 488.83 1457.14 491.069C1457.14 493.308 1455.31 495.138 1453.07 495.138Z" fill="#4BB3EE"/>
        <path d="M1453.07 531.738C1450.83 531.738 1449 529.908 1449 527.669C1449 525.43 1450.83 523.6 1453.07 523.6C1455.31 523.6 1457.14 525.43 1457.14 527.669C1457.14 529.908 1455.31 531.738 1453.07 531.738Z" fill="#4BB3EE"/>
        <path d="M1453.07 568.338C1450.83 568.338 1449 566.508 1449 564.269C1449 562.03 1450.83 560.2 1453.07 560.2C1455.31 560.2 1457.14 562.03 1457.14 564.269C1457.14 566.508 1455.31 568.338 1453.07 568.338Z" fill="#4BB3EE"/>
        <path d="M1453.07 604.939C1450.83 604.939 1449 603.109 1449 600.87C1449 598.63 1450.83 596.8 1453.07 596.8C1455.31 596.8 1457.14 598.63 1457.14 600.87C1457.14 603.109 1455.31 604.939 1453.07 604.939Z" fill="#4BB3EE"/>
        <path d="M1453.07 641.538C1450.83 641.538 1449 639.708 1449 637.469C1449 635.23 1450.83 633.4 1453.07 633.4C1455.31 633.4 1457.14 635.23 1457.14 637.469C1457.14 639.708 1455.31 641.538 1453.07 641.538Z" fill="#4BB3EE"/>
        <path d="M1453.07 678.138C1450.83 678.138 1449 676.308 1449 674.069C1449 671.83 1450.83 670 1453.07 670C1455.31 670 1457.14 671.83 1457.14 674.069C1457.14 676.308 1455.31 678.138 1453.07 678.138Z" fill="#4BB3EE"/>
        <path d="M676.658 1062.47C676.385 1065.5 676.089 1068.65 675.827 1071.6C675.686 1073.32 675.561 1074.9 675.475 1076.12C675.324 1076.76 675.258 1077.64 675.159 1078.3C675.237 1077.94 675.295 1078.08 675.265 1078.36C675.052 1080.39 675.324 1078.49 675.171 1080.56C675.111 1081.69 674.848 1084.34 674.564 1087.01C674.153 1090.79 673.744 1094.62 673.541 1096.43C673.891 1096.35 674.109 1096.3 674.291 1096.25C675.356 1095.9 676.438 1095.61 677.529 1095.33C678.074 1095.19 678.611 1095.04 679.142 1094.91C679.353 1094.85 679.563 1094.78 679.759 1094.73C679.904 1094.69 680.027 1094.63 680.172 1094.59L680.072 1094.65C681.21 1094.29 687.803 1092.71 689.131 1092.32L688.941 1092.35C690.099 1091.96 689.962 1092.16 690.909 1091.96C690.74 1091.83 691.731 1091.48 692.109 1091.38L692.111 1091.41C692.691 1091.24 693.956 1090.77 694.915 1090.49L694.898 1090.59C695.67 1090.29 697.177 1089.95 697.743 1089.78C699.061 1089.47 701.119 1089.1 702.835 1088.52L704.033 1088.47L704.184 1088.4L707.896 1086.95C708.74 1086.6 705.076 1084.37 705.138 1084.27C705.367 1084.45 705.591 1084.64 705.646 1084.71C705.619 1084.63 705.181 1084.25 704.914 1084.08L704.8 1084.14C704.22 1083.75 704.711 1083.99 704.174 1083.57C704.213 1083.47 704.717 1083.83 705.169 1084.16C704.785 1083.85 704.427 1083.49 704.197 1083.45C703.849 1083.13 704.311 1083.38 703.887 1083C703.551 1082.77 703.075 1082.53 702.734 1082.2L702.748 1082.19C701.913 1081.41 701.279 1081.26 700.536 1080.55L700.648 1080.58C700.398 1080.3 699.776 1079.94 699.296 1079.49C699.428 1079.62 699.517 1079.78 699.196 1079.55C698.64 1079.03 698.192 1078.77 697.796 1078.37L697.32 1078.13C695.248 1076.51 686.925 1070.27 684.819 1068.69L684.902 1068.73C682.812 1067.18 679.854 1064.92 676.658 1062.47Z" fill="#FFC300" fill-opacity="0.5"/>
        <path d="M699.597 1041.15C702.352 1042.45 705.226 1043.79 707.883 1045.05C709.444 1045.77 710.891 1046.43 712.021 1046.92C712.562 1047.28 713.377 1047.65 713.967 1047.96C713.648 1047.76 713.795 1047.75 714.059 1047.89C715.901 1048.77 714.206 1047.88 716.106 1048.73C717.152 1049.18 719.552 1050.32 721.976 1051.5C725.398 1053.17 728.85 1054.87 730.489 1055.66C730.529 1055.3 730.541 1055.08 730.568 1054.9C730.6 1053.78 730.682 1052.66 730.802 1051.53C730.847 1050.98 730.907 1050.42 730.938 1049.87C730.949 1049.66 730.975 1049.43 730.986 1049.22C730.993 1049.06 730.993 1048.93 731 1048.78L731.028 1048.89C731.085 1047.69 731.84 1040.97 731.924 1039.58L731.882 1039.78C731.908 1038.55 732.05 1038.74 732.179 1037.79C732.015 1037.91 732.014 1036.87 732.03 1036.46L732.061 1036.48C732.082 1035.88 732.072 1034.53 732.139 1033.55L732.223 1033.59C732.21 1032.77 732.383 1031.24 732.426 1030.64C732.594 1029.3 732.938 1027.24 732.993 1025.43L733.355 1024.3L733.354 1024.13L733.24 1020.15C733.201 1019.25 729.861 1021.93 729.79 1021.84C730.04 1021.68 730.283 1021.54 730.369 1021.49C730.273 1021.49 729.772 1021.77 729.539 1021.96L729.561 1022.1C728.985 1022.52 729.385 1022.12 728.808 1022.51C728.716 1022.44 729.251 1022.09 729.713 1021.77C729.292 1022.02 728.823 1022.23 728.708 1022.43C728.285 1022.65 728.687 1022.29 728.177 1022.56C727.858 1022.8 727.465 1023.17 727.033 1023.38L727.025 1023.36C726.013 1023.88 725.657 1024.42 724.731 1024.89L724.815 1024.8C724.484 1024.95 723.911 1025.41 723.322 1025.7C723.502 1025.62 723.677 1025.6 723.35 1025.82C722.683 1026.18 722.28 1026.5 721.768 1026.73L721.375 1027.1C719.141 1028.5 710.446 1034.21 708.236 1035.65L708.314 1035.58C706.108 1036.96 702.978 1038.98 699.597 1041.15Z" fill="#FFC300" fill-opacity="0.5"/>
        <path d="M606.933 1090.4C607.701 1093.33 608.513 1096.41 609.255 1099.26C609.708 1100.93 610.131 1102.44 610.479 1103.63C610.541 1104.27 610.784 1105.14 610.928 1105.79C610.873 1105.43 610.98 1105.52 611.046 1105.8C611.545 1107.79 611.148 1105.91 611.706 1107.9C612.033 1108.98 612.695 1111.56 613.344 1114.18C614.238 1117.86 615.166 1121.61 615.602 1123.38C615.901 1123.18 616.087 1123.07 616.237 1122.97C617.115 1122.28 618.032 1121.63 618.971 1120.99C619.434 1120.67 619.896 1120.35 620.345 1120.04C620.523 1119.92 620.693 1119.79 620.871 1119.67C620.991 1119.58 621.09 1119.49 621.21 1119.4L621.135 1119.5C622.085 1118.78 627.743 1115.05 628.856 1114.21L628.699 1114.3C629.647 1113.54 629.607 1113.77 630.413 1113.25C630.211 1113.2 631.024 1112.53 631.344 1112.29L631.346 1112.33C631.821 1111.97 632.851 1111.08 633.661 1110.51L633.681 1110.61C634.302 1110.07 635.599 1109.23 636.082 1108.88C637.216 1108.14 639.018 1107.09 640.441 1105.96L641.545 1105.51L641.672 1105.4L644.661 1102.76C645.337 1102.15 641.132 1101.3 641.163 1101.19C641.44 1101.28 641.717 1101.37 641.801 1101.41C641.738 1101.34 641.212 1101.14 640.907 1101.07L640.816 1101.18C640.13 1101 640.692 1101.06 640.026 1100.85C640.021 1100.74 640.626 1100.91 641.172 1101.07C640.699 1100.9 640.239 1100.69 640.013 1100.72C639.583 1100.53 640.103 1100.62 639.569 1100.41C639.174 1100.31 638.648 1100.25 638.218 1100.06L638.233 1100.05C637.186 1099.6 636.541 1099.66 635.592 1099.25L635.711 1099.26C635.385 1099.09 634.672 1098.96 634.069 1098.7C634.242 1098.77 634.374 1098.9 633.999 1098.78C633.307 1098.49 632.779 1098.39 632.28 1098.14L631.746 1098.07C629.245 1097.25 619.295 1094.22 616.773 1093.44L616.877 1093.45C614.328 1092.72 610.765 1091.6 606.933 1090.4Z" fill="#FFC300" fill-opacity="0.5"/>
        <path d="M698.333 1115.25C697.376 1118.14 696.358 1121.15 695.417 1123.93C694.889 1125.57 694.399 1127.08 694.046 1128.26C693.752 1128.84 693.479 1129.69 693.237 1130.3C693.404 1129.96 693.426 1130.1 693.322 1130.39C692.655 1132.31 693.352 1130.54 692.709 1132.51C692.381 1133.6 691.529 1136.1 690.642 1138.65C689.381 1142.23 688.094 1145.87 687.496 1147.59C687.857 1147.59 688.077 1147.58 688.255 1147.59C689.369 1147.49 690.487 1147.46 691.62 1147.43C692.179 1147.41 692.738 1147.4 693.297 1147.39C693.517 1147.37 693.723 1147.37 693.944 1147.36C694.091 1147.35 694.23 1147.33 694.376 1147.32L694.268 1147.37C695.464 1147.28 702.239 1147.26 703.627 1147.18L703.441 1147.15C704.658 1147.03 704.49 1147.2 705.449 1147.22C705.323 1147.07 706.347 1146.94 706.752 1146.92L706.731 1146.95C707.333 1146.91 708.672 1146.74 709.664 1146.69L709.625 1146.79C710.443 1146.67 711.998 1146.68 712.585 1146.65C713.934 1146.66 716.031 1146.76 717.827 1146.59L718.995 1146.82L719.162 1146.78L723.096 1146.22C723.994 1146.07 720.946 1143.05 721.024 1142.99C721.213 1143.22 721.379 1143.45 721.427 1143.54C721.416 1143.45 721.075 1142.98 720.858 1142.76L720.727 1142.8C720.244 1142.28 720.681 1142.62 720.234 1142.1C720.296 1142 720.71 1142.47 721.071 1142.91C720.771 1142.51 720.506 1142.07 720.288 1141.99C720.025 1141.59 720.419 1141.95 720.092 1141.48C719.812 1141.18 719.404 1140.83 719.163 1140.43L719.177 1140.43C718.547 1139.48 717.965 1139.18 717.398 1138.31L717.489 1138.38C717.311 1138.06 716.791 1137.54 716.425 1136.99C716.536 1137.16 716.574 1137.33 716.316 1137.04C715.887 1136.41 715.515 1136.05 715.225 1135.57L714.817 1135.22C713.18 1133.16 706.499 1125.19 704.819 1123.15L704.896 1123.22C703.249 1121.24 700.877 1118.35 698.333 1115.25Z" fill="#FFC300" fill-opacity="0.5"/>
        <path d="M725.98 1082.81C726.864 1085.71 727.807 1088.75 728.665 1091.57C729.184 1093.22 729.672 1094.72 730.049 1095.89C730.148 1096.53 730.419 1097.38 730.577 1098.03C730.514 1097.65 730.615 1097.76 730.696 1098.04C731.274 1099.99 730.797 1098.15 731.435 1100.11C731.799 1101.19 732.569 1103.72 733.32 1106.32C734.382 1109.97 735.44 1113.68 735.956 1115.43C736.255 1115.22 736.425 1115.09 736.574 1114.99C737.429 1114.26 738.307 1113.57 739.216 1112.91C739.662 1112.56 740.117 1112.23 740.557 1111.9C740.727 1111.77 740.897 1111.63 741.067 1111.5C741.179 1111.4 741.286 1111.32 741.398 1111.22L741.322 1111.32C742.248 1110.55 747.748 1106.61 748.815 1105.72L748.643 1105.82C749.553 1105.02 749.527 1105.24 750.325 1104.72C750.123 1104.66 750.898 1103.96 751.217 1103.72L751.219 1103.76C751.686 1103.38 752.67 1102.45 753.456 1101.83L753.476 1101.94C754.08 1101.37 755.331 1100.47 755.806 1100.11C756.915 1099.33 758.677 1098.2 760.045 1097.01L761.125 1096.52L761.243 1096.39L764.108 1093.64C764.754 1093.01 760.514 1092.33 760.545 1092.21C760.836 1092.29 761.105 1092.37 761.188 1092.42C761.126 1092.34 760.58 1092.18 760.282 1092.12L760.192 1092.22C759.507 1092.08 760.053 1092.11 759.389 1091.94C759.384 1091.83 759.995 1091.98 760.533 1092.13C760.054 1091.98 759.594 1091.77 759.361 1091.83C758.911 1091.66 759.451 1091.72 758.912 1091.53C758.51 1091.46 757.978 1091.42 757.548 1091.23L757.563 1091.22C756.504 1090.81 755.86 1090.91 754.891 1090.54L755.001 1090.53C754.67 1090.38 753.942 1090.26 753.341 1090.03C753.514 1090.1 753.652 1090.22 753.265 1090.13C752.552 1089.87 752.04 1089.8 751.527 1089.57L750.995 1089.53C748.454 1088.81 738.401 1086.2 735.839 1085.51L735.943 1085.53C733.462 1084.81 729.855 1083.85 725.98 1082.81Z" fill="#FFC300" fill-opacity="0.5"/>
        <path d="M622.077 1043.7C623.322 1046.47 624.619 1049.36 625.83 1052.04C626.543 1053.6 627.214 1055.06 627.756 1056.15C627.92 1056.77 628.3 1057.58 628.56 1058.21C628.454 1057.85 628.562 1057.94 628.67 1058.2C629.488 1060.08 628.786 1058.3 629.669 1060.17C630.17 1061.19 631.236 1063.61 632.312 1066.08C633.816 1069.58 635.344 1073.11 636.063 1074.79C636.323 1074.54 636.485 1074.4 636.618 1074.26C637.364 1073.45 638.164 1072.65 638.985 1071.87C639.385 1071.47 639.785 1071.08 640.178 1070.7C640.332 1070.54 640.479 1070.4 640.633 1070.24C640.723 1070.13 640.836 1070.03 640.926 1069.92L640.873 1070.03C641.697 1069.14 646.655 1064.55 647.621 1063.55L647.479 1063.66C648.287 1062.75 648.284 1062.98 649.003 1062.35C648.795 1062.32 649.485 1061.53 649.757 1061.24L649.773 1061.27C650.185 1060.83 651.053 1059.79 651.754 1059.09L651.788 1059.19C652.316 1058.55 653.455 1057.49 653.869 1057.09C654.869 1056.18 656.472 1054.84 657.692 1053.49L658.713 1052.86L658.824 1052.72L661.325 1049.62C661.885 1048.91 657.606 1048.76 657.623 1048.65C657.912 1048.7 658.202 1048.74 658.277 1048.78C658.208 1048.72 657.65 1048.6 657.34 1048.59L657.272 1048.7C656.562 1048.65 657.119 1048.6 656.43 1048.52C656.41 1048.41 657.032 1048.48 657.58 1048.55C657.083 1048.47 656.604 1048.32 656.38 1048.39C655.925 1048.29 656.447 1048.28 655.903 1048.15C655.497 1048.14 654.961 1048.16 654.504 1048.02L654.511 1047.99C653.414 1047.73 652.775 1047.9 651.768 1047.66L651.885 1047.63C651.54 1047.52 650.81 1047.5 650.168 1047.33C650.348 1047.38 650.5 1047.48 650.115 1047.44C649.377 1047.27 648.861 1047.26 648.315 1047.1L647.778 1047.11C645.173 1046.72 634.86 1045.39 632.257 1045.03L632.352 1045.03C629.746 1044.76 626.06 1044.26 622.077 1043.7Z" fill="#FFC300" fill-opacity="0.5"/>
        <path d="M572.091 1036.79C575.123 1036.74 578.302 1036.68 581.246 1036.64C582.959 1036.6 584.555 1036.55 585.775 1036.5C586.413 1036.59 587.303 1036.56 587.974 1036.58C587.597 1036.55 587.726 1036.47 588.028 1036.47C590.082 1036.46 588.157 1036.4 590.238 1036.34C591.376 1036.28 594.027 1036.26 596.722 1036.24C600.522 1036.25 604.374 1036.24 606.2 1036.23C606.079 1035.89 606.003 1035.68 605.942 1035.51C605.478 1034.49 605.064 1033.46 604.671 1032.39C604.468 1031.87 604.264 1031.34 604.077 1030.84C604 1030.64 603.909 1030.44 603.833 1030.24C603.774 1030.1 603.715 1029.97 603.651 1029.85L603.722 1029.94C603.245 1028.83 600.969 1022.47 600.433 1021.18L600.479 1021.37C599.966 1020.26 600.177 1020.37 599.873 1019.46C599.765 1019.64 599.312 1018.7 599.161 1018.33L599.197 1018.33C598.963 1017.78 598.349 1016.56 597.971 1015.66L598.067 1015.66C597.691 1014.93 597.167 1013.47 596.948 1012.91C596.507 1011.63 595.904 1009.63 595.165 1007.99L594.987 1006.81L594.898 1006.65L593.039 1003.13C592.608 1002.33 590.781 1006.22 590.689 1006.16C590.845 1005.9 590.995 1005.66 591.059 1005.61C590.979 1005.63 590.651 1006.12 590.525 1006.4L590.604 1006.51C590.275 1007.13 590.455 1006.61 590.109 1007.2C590.005 1007.18 590.316 1006.63 590.593 1006.15C590.32 1006.57 589.994 1006.96 589.991 1007.19C589.716 1007.57 589.912 1007.09 589.581 1007.54C589.394 1007.91 589.206 1008.41 588.915 1008.76L588.906 1008.75C588.231 1009.66 588.138 1010.3 587.51 1011.13L587.541 1011.01C587.305 1011.3 586.992 1011.95 586.592 1012.48C586.709 1012.32 586.852 1012.24 586.663 1012.57C586.215 1013.18 585.997 1013.66 585.65 1014.09L585.462 1014.59C584.081 1016.83 578.784 1025.77 577.419 1028.04L577.459 1027.94C576.114 1030.17 574.178 1033.36 572.091 1036.79Z" fill="#FFC300" fill-opacity="0.5"/>
        <path d="M653.941 1025.4C655.374 1022.72 656.866 1019.91 658.251 1017.31C659.049 1015.78 659.78 1014.37 660.328 1013.27C660.714 1012.75 661.115 1011.95 661.469 1011.37C661.249 1011.69 661.256 1011.53 661.398 1011.28C662.381 1009.48 661.405 1011.13 662.349 1009.29C662.85 1008.27 664.101 1005.94 665.409 1003.57C667.251 1000.25 669.104 996.874 669.995 995.274C669.638 995.212 669.43 995.178 669.245 995.15C668.121 995.068 667.016 994.918 665.903 994.754C665.347 994.671 664.798 994.604 664.242 994.522C664.019 994.496 663.811 994.462 663.611 994.443C663.471 994.428 663.316 994.421 663.175 994.406L663.3 994.393C662.101 994.277 655.416 993.181 654.046 993.03L654.225 993.08C653.006 992.995 653.198 992.867 652.26 992.679C652.357 992.851 651.323 992.793 650.924 992.754L650.944 992.724C650.345 992.666 648.994 992.617 648.016 992.49L648.063 992.407C647.237 992.382 645.714 992.129 645.121 992.048C643.784 991.822 641.75 991.366 639.939 991.237L638.812 990.816L638.643 990.817L634.661 990.725C633.747 990.713 636.267 994.201 636.181 994.249C636.035 993.991 635.89 993.734 635.864 993.654C635.853 993.736 636.108 994.253 636.29 994.509L636.429 994.487C636.82 995.078 636.438 994.671 636.793 995.264C636.723 995.341 636.387 994.813 636.111 994.326C636.354 994.756 636.534 995.24 636.731 995.355C636.937 995.787 636.592 995.377 636.839 995.88C637.062 996.208 637.415 996.632 637.584 997.065L637.562 997.059C638.034 998.095 638.555 998.481 638.979 999.432L638.893 999.348C639.014 999.695 639.442 1000.28 639.723 1000.88C639.648 1000.72 639.639 1000.53 639.847 1000.87C640.162 1001.56 640.471 1001.97 640.688 1002.49L641.033 1002.9C642.314 1005.2 647.573 1014.17 648.905 1016.46L648.842 1016.38C650.086 1018.68 651.938 1021.92 653.941 1025.4Z" fill="#FFC300" fill-opacity="0.5"/>
        <path d="M906 247C844.242 247 794 196.758 794 135C794 73.2419 844.242 23 906 23C967.758 23 1018 73.2419 1018 135C1017.99 196.758 967.746 247 906 247ZM906 26.764C846.319 26.764 797.764 75.3186 797.764 135C797.764 194.681 846.319 243.236 906 243.236C965.681 243.236 1014.24 194.681 1014.24 135C1014.24 75.3186 965.681 26.764 906 26.764Z" fill="#3561EB"/>
        <path d="M906 234.764C850.991 234.764 806.236 190.009 806.236 135C806.236 79.9911 850.991 35.236 906 35.236C961.009 35.236 1005.76 79.9911 1005.76 135C1005.75 190.009 960.997 234.764 906 234.764ZM906 39C853.068 39 810 82.0678 810 135C810 187.932 853.068 231 906 231C958.932 231 1002 187.932 1002 135C1002 82.0678 958.932 39 906 39Z" fill="#3561EB"/>
        <path d="M906 222.528C857.74 222.528 818.472 183.26 818.472 135C818.472 86.7404 857.74 47.472 906 47.472C954.259 47.472 993.528 86.7404 993.528 135C993.516 183.26 954.259 222.528 906 222.528ZM906 51.236C859.805 51.236 822.236 88.8171 822.236 135C822.236 181.195 859.817 218.764 906 218.764C952.183 218.764 989.764 181.183 989.764 135C989.764 88.8171 952.183 51.236 906 51.236Z" fill="#3561EB"/>
        <path d="M906 210.292C864.49 210.292 830.708 176.522 830.708 135C830.708 93.4896 864.478 59.7079 906 59.7079C947.51 59.7079 981.292 93.4778 981.292 135C981.28 176.522 947.51 210.292 906 210.292ZM906 63.4719C866.555 63.4719 834.472 95.5663 834.472 135C834.472 174.445 866.566 206.528 906 206.528C945.434 206.528 977.528 174.434 977.528 135C977.528 95.5663 945.434 63.4719 906 63.4719Z" fill="#3561EB"/>
        <path d="M906.001 198.056C871.228 198.056 842.945 169.773 842.945 135C842.945 100.227 871.228 71.944 906.001 71.944C940.773 71.944 969.057 100.227 969.057 135C969.045 169.773 940.762 198.056 906.001 198.056ZM906.001 75.708C873.304 75.708 846.709 102.304 846.709 135C846.709 167.696 873.304 194.304 906.001 194.304C938.697 194.304 965.293 167.708 965.293 135C965.293 102.304 938.697 75.708 906.001 75.708Z" fill="#3561EB"/>
        <path d="M906 185.82C877.976 185.82 855.18 163.024 855.18 135C855.18 106.976 877.976 84.1799 906 84.1799C934.024 84.1799 956.82 106.976 956.82 135C956.82 163.024 934.012 185.82 906 185.82ZM906 87.9439C880.053 87.9439 858.932 109.053 858.932 135.012C858.932 160.959 880.041 182.08 906 182.08C931.959 182.08 953.068 160.97 953.068 135.012C953.056 109.053 931.947 87.9439 906 87.9439Z" fill="#3561EB"/>
    </g>
    <defs>
        <clipPath id="clip0_348_30">
            <rect width="1728" height="1745" fill="white"/>
        </clipPath>
    </defs>
</svg>
