<svg width="185" height="185" viewBox="0 0 185 185" fill="none" xmlns="http://www.w3.org/2000/svg">
    <g filter="url(#filter0_d_345_30)">
        <rect x="4" width="177" height="177" rx="30" fill="white"/>
    </g>
    <path d="M66.2011 73.3966V92.7661C66.2011 105.06 66.2965 117.365 66.2011 129.694C66.1297 134.995 64.3187 139.308 58.4808 140.928C56.5812 141.567 54.52 141.536 52.6405 140.84C50.761 140.144 49.1767 138.826 48.1512 137.104C46.7883 134.946 46.0577 132.449 46.0424 129.897C45.947 102.332 46.0424 74.7665 46.0424 47.2013C46.0424 41.7335 47.5078 37.4332 53.1909 35.551C59.0407 33.5974 62.6626 37.1711 65.8556 41.0545C81.0581 59.5902 96.1296 78.2449 111.272 96.8282C113.119 99.1154 115.109 101.283 118.421 105.072C118.421 100.771 118.421 98.1624 118.421 95.5417C118.516 88.3943 118.266 81.2468 118.874 74.159C118.939 72.9124 119.251 71.6911 119.794 70.5667C120.336 69.4422 121.097 68.437 122.032 67.6097C122.967 66.7824 124.057 66.1497 125.239 65.7484C126.422 65.3471 127.672 65.1852 128.917 65.2724C131.425 65.3037 133.818 66.3216 135.58 68.1054C137.342 69.8892 138.33 72.2953 138.33 74.8022C138.532 93.6357 138.723 112.481 138.187 131.303C138.091 134.483 135.006 139.081 132.17 140.225C129.334 141.369 124.068 140.07 121.733 137.842C115.871 132.291 111.01 125.68 105.863 119.402C93.155 103.94 80.4982 88.4538 67.893 72.9439L66.2011 73.3966Z" fill="#444444"/>
    <path d="M137.984 44.8546C137.919 47.3401 136.921 49.7102 135.188 51.4936C133.455 53.2769 131.114 54.343 128.631 54.4798C126.743 54.5151 124.887 53.9887 123.298 52.9675C121.71 51.9462 120.461 50.4762 119.709 48.7438C118.958 47.0115 118.738 45.095 119.077 43.2375C119.417 41.38 120.301 39.6652 121.617 38.3109C122.933 36.9565 124.622 36.0236 126.469 35.6304C128.316 35.2373 130.238 35.4017 131.992 36.1028C133.746 36.8039 135.251 38.0101 136.318 39.5683C137.385 41.1264 137.965 42.9664 137.984 44.8546Z" fill="#5A81FA"/>
    <defs>
        <filter id="filter0_d_345_30" x="0" y="0" width="185" height="185" filterUnits="userSpaceOnUse" color-interpolation-filters="sRGB">
            <feFlood flood-opacity="0" result="BackgroundImageFix"/>
            <feColorMatrix in="SourceAlpha" type="matrix" values="0 0 0 0 0 0 0 0 0 0 0 0 0 0 0 0 0 0 127 0" result="hardAlpha"/>
            <feOffset dy="4"/>
            <feGaussianBlur stdDeviation="2"/>
            <feComposite in2="hardAlpha" operator="out"/>
            <feColorMatrix type="matrix" values="0 0 0 0 0 0 0 0 0 0 0 0 0 0 0 0 0 0 0.05 0"/>
            <feBlend mode="normal" in2="BackgroundImageFix" result="effect1_dropShadow_345_30"/>
            <feBlend mode="normal" in="SourceGraphic" in2="effect1_dropShadow_345_30" result="shape"/>
        </filter>
    </defs>
</svg>
