<svg width="1258" height="199" viewBox="0 0 1258 199" fill="none" xmlns="http://www.w3.org/2000/svg">
    <g clip-path="url(#clip0_345_32)">
        <path d="M35.9671 73.4239V107.839C35.9671 129.682 36.1364 151.546 35.9671 173.453C35.8401 182.872 32.6223 190.534 22.2492 193.412C18.874 194.547 15.2116 194.492 11.8721 193.256C8.53254 192.02 5.71735 189.677 3.89522 186.618C1.47355 182.784 0.175429 178.348 0.148207 173.813C-0.0211498 124.835 0.148207 75.8579 0.148207 26.8805C0.148207 17.1654 2.75206 9.52457 12.8499 6.18039C23.2442 2.70921 29.6797 9.05892 35.3532 15.9589C62.3655 48.8928 89.145 82.0383 116.051 115.057C119.333 119.121 122.868 122.973 128.753 129.703C128.753 122.063 128.753 117.427 128.753 112.771C128.923 100.071 128.478 87.3721 129.558 74.7785C129.673 72.5635 130.229 70.3936 131.192 68.3957C132.156 66.3977 133.507 64.6117 135.169 63.1418C136.83 61.6719 138.768 60.5476 140.868 59.8346C142.969 59.1215 145.191 58.834 147.404 58.9888C151.858 59.0445 156.112 60.853 159.242 64.0225C162.373 67.1919 164.128 71.467 164.127 75.9214C164.487 109.384 164.826 142.869 163.873 176.31C163.704 181.962 158.221 190.132 153.183 192.163C148.144 194.195 138.788 191.888 134.638 187.93C124.223 178.067 115.586 166.32 106.44 155.166C83.8596 127.693 61.3705 100.177 38.9731 72.6196L35.9671 73.4239Z" fill="#444444"/>
        <path d="M944.966 127.396C944.966 143.504 944.966 157.875 944.966 172.225C944.966 185.793 938.276 194.068 927.565 194.238C916.853 194.407 909.338 186.152 909.274 172.733C909.077 123.728 909.077 74.7361 909.274 25.7587C909.274 13.2709 915.816 5.4396 927.353 5.22795C950.237 4.8258 973.206 4.46596 996.006 6.13806C1021.05 7.95831 1039.34 21.0599 1046.16 45.9719C1053.14 71.4978 1049.23 95.0975 1027.72 113.025C1022.89 117.025 1021.66 119.946 1024.14 125.978C1027.65 134.55 1024.69 142.001 1016.29 146.424C1007.88 150.848 998.525 150.023 994.693 142.191C982.986 118.422 962.897 130.804 944.966 127.396ZM945.538 97.6163C962.135 96.8755 978.308 97.3411 994.101 95.0975C1007.69 93.1503 1013.89 81.6361 1013.15 65.4655C1012.5 51.7713 1005.47 41.8023 993.127 40.8921C977.525 39.728 961.775 40.617 945.601 40.617L945.538 97.6163Z" fill="#444444"/>
        <path d="M248.615 40.617V82.4404H283.524C291.632 82.4404 299.761 82.3134 307.869 82.4404C321.142 82.6944 328.869 89.2346 328.657 99.7963C328.445 109.808 320.719 116.348 308.228 116.496C292.013 116.708 275.776 116.496 259.539 116.496C256.109 116.496 252.68 116.814 248.742 116.983V158.637C270.017 158.637 290.721 158.637 311.425 158.637C316 158.444 320.584 158.656 325.122 159.272C329.028 159.73 332.632 161.598 335.259 164.525C337.886 167.451 339.355 171.235 339.39 175.167C339.962 184.269 335.622 190.788 326.583 193.306C323.167 194.182 319.65 194.595 316.125 194.534C289.31 194.647 262.495 194.647 235.681 194.534C218.893 194.534 212.394 188.184 212.394 171.717C212.309 123.417 212.309 75.103 212.394 26.7746C212.394 11.9586 218.745 5.29144 233.331 4.86813C243.534 4.57181 253.78 4.63531 264.005 4.86813C276.707 5.12212 284.624 11.9798 284.73 22.5415C284.836 33.4418 277.321 40.1725 264.429 40.5323C259.581 40.744 254.712 40.617 248.615 40.617Z" fill="#444444"/>
        <path d="M1176.71 148.245C1163.31 148.245 1149.91 148.562 1136.49 148.118C1130.35 147.906 1126.94 149.79 1124.55 155.589C1120.82 164.69 1116.38 173.538 1111.85 182.279C1106.4 192.862 1096.35 196.905 1087.46 192.544C1078.57 188.184 1074.76 177.453 1079.56 167.146C1103.34 116.898 1127.43 66.799 1151.39 16.6363C1154.9 9.29176 1160.98 3.74634 1168.69 5.58775C1174.72 7.04819 1182 11.9375 1184.67 17.1866C1201.86 51.4538 1218.2 86.1656 1234.21 120.899C1241.4 136.582 1233.25 147.991 1215.77 148.16C1202.71 148.35 1189.75 148.245 1176.71 148.245ZM1168.05 64.3649L1143.18 116.983H1193.48C1184.86 99.1825 1176.9 82.6733 1168.05 64.3649Z" fill="#444444"/>
        <path d="M794.281 148.245C781.241 148.245 768.179 148.753 755.16 148.054C747.878 147.673 744.385 150.361 741.781 156.774C738.203 165.537 733.948 174.088 729.523 182.47C723.914 193.052 714.493 196.735 704.988 192.439C696.351 188.523 692.689 177.199 697.536 167.04C721.31 116.792 745.041 66.5238 769.513 16.6574C772.095 11.4083 780.098 5.94758 785.644 5.88408C791.19 5.82059 799.319 11.1543 801.902 16.3188C819.431 51.1999 836.006 86.5466 852.37 121.999C858.721 135.736 850.571 147.864 835.435 148.245C821.78 148.52 808.041 148.245 794.281 148.245ZM760.897 116.983H811.28L785.877 64.3438C776.964 83.1601 769.195 99.5424 760.897 116.983Z" fill="#444444"/>
        <path d="M368.9 101.278C368.519 38.6274 423.476 -8.78377 484.02 1.39694C498.606 3.85216 512.938 9.8632 526.36 16.4246C538.659 22.4568 541.284 32.7857 536.119 42.7336C531.483 51.6867 523.904 52.6179 510.313 47.7075C497.865 43.1992 485.142 37.675 472.208 36.6378C457.116 35.4305 442.096 39.7123 429.91 48.6954C417.724 57.6786 409.192 70.7591 405.884 85.5306C402.589 100.49 404.754 116.135 411.987 129.639C419.219 143.142 431.043 153.615 445.323 159.166C454.023 162.68 463.592 164.182 472.843 166.235C486.307 169.241 491.409 174.342 490.392 184.353C489.419 193.73 482.369 199.169 469.392 199C432.388 198.661 403.767 182.554 383.74 151.589C373.862 136.685 368.692 119.156 368.9 101.278Z" fill="#444444"/>
        <path d="M613.79 40.617C600.051 40.617 588.386 40.8287 576.828 40.617C564.697 40.3419 557.14 33.5053 556.971 23.2823C556.801 13.0593 564.084 5.46075 576.023 5.14326C593.975 4.66351 611.948 4.66351 629.942 5.14326C642.877 5.48192 648.995 12.0645 648.995 25.3565C649.122 75.0536 649.122 124.737 648.995 174.405C648.995 186.703 642.242 194.111 631.868 194.28C621.495 194.449 614.213 186.999 614.086 174.871C613.705 134.656 613.874 94.4414 613.811 54.3747L613.79 40.617Z" fill="#444444"/>
        <path d="M338.48 22.478C338.692 30.9443 330.435 39.601 321.841 39.9397C317.211 39.9159 312.769 38.1068 309.44 34.8892C306.112 31.6717 304.153 27.294 303.973 22.6685C303.973 14.2022 312.441 5.88405 321.121 5.73589C325.561 5.92398 329.778 7.73093 332.976 10.8155C336.174 13.9 338.132 18.0487 338.48 22.478Z" fill="#5A81FA"/>
        <path d="M163.514 22.7108C163.398 27.1271 161.624 31.3382 158.545 34.5069C155.466 37.6755 151.307 39.5697 146.895 39.8127C143.54 39.8754 140.242 38.9402 137.42 37.1257C134.597 35.3112 132.377 32.6992 131.042 29.6212C129.706 26.5432 129.316 23.1379 129.919 19.8376C130.523 16.5372 132.094 13.4905 134.432 11.0841C136.77 8.67766 139.771 7.02001 143.053 6.32152C146.335 5.62304 149.751 5.91518 152.867 7.16087C155.983 8.40657 158.658 10.5497 160.554 13.3182C162.449 16.0867 163.479 19.3559 163.514 22.7108Z" fill="#5A81FA"/>
        <path d="M523.629 180.205C521.43 180.271 519.242 179.891 517.194 179.088C515.147 178.285 513.284 177.075 511.717 175.532C510.15 173.99 508.912 172.145 508.078 170.111C507.243 168.077 506.83 165.894 506.862 163.696C506.862 159.244 508.631 154.975 511.779 151.827C514.928 148.68 519.198 146.911 523.65 146.911C528.102 146.911 532.372 148.68 535.52 151.827C538.669 154.975 540.437 159.244 540.437 163.696C540.467 165.897 540.05 168.082 539.212 170.118C538.374 172.154 537.132 173.999 535.561 175.541C533.991 177.084 532.123 178.293 530.073 179.094C528.022 179.896 525.83 180.274 523.629 180.205Z" fill="#5A81FA"/>
        <path d="M841.764 175.294C842.696 166.278 851.248 158.806 859.864 159.42C869.01 160.076 877.16 169.58 875.996 178.215C875.409 182.62 873.169 186.637 869.729 189.452C866.289 192.266 861.907 193.667 857.472 193.37C848.454 192.502 840.897 183.761 841.764 175.294Z" fill="#5A81FA"/>
        <path d="M1037.69 192.989C1033.25 193.074 1028.95 191.442 1025.68 188.433C1022.42 185.424 1020.44 181.271 1020.16 176.839C1020.11 174.594 1020.5 172.36 1021.32 170.266C1022.13 168.172 1023.35 166.258 1024.9 164.635C1026.45 163.012 1028.31 161.71 1030.37 160.804C1032.42 159.899 1034.64 159.407 1036.88 159.357C1039.13 159.307 1041.36 159.699 1043.46 160.513C1045.55 161.326 1047.47 162.544 1049.09 164.096C1050.71 165.649 1052.02 167.506 1052.92 169.562C1053.83 171.618 1054.32 173.832 1054.37 176.077C1054.31 180.504 1052.54 184.737 1049.43 187.889C1046.32 191.042 1042.12 192.869 1037.69 192.989Z" fill="#5A81FA"/>
        <path d="M688.645 39.9397C685.248 39.9687 681.92 38.9847 679.086 37.1134C676.251 35.242 674.039 32.5683 672.731 29.4338C671.424 26.2993 671.081 22.8462 671.746 19.5158C672.411 16.1853 674.054 13.1287 676.465 10.7363C678.876 8.3439 681.945 6.72441 685.281 6.08465C688.617 5.4449 692.068 5.81394 695.193 7.14465C698.318 8.47536 700.976 10.7073 702.826 13.5554C704.676 16.4035 705.635 19.7384 705.581 23.1341C705.52 27.5942 703.712 31.8526 700.546 34.9948C697.379 38.137 693.106 39.9124 688.645 39.9397Z" fill="#5A81FA"/>
        <path d="M1241.66 159.378C1243.9 159.476 1246.09 160.015 1248.13 160.963C1250.16 161.911 1251.98 163.25 1253.49 164.903C1255.01 166.556 1256.18 168.49 1256.95 170.597C1257.71 172.703 1258.06 174.939 1257.96 177.178C1257.86 179.417 1257.32 181.615 1256.37 183.645C1255.42 185.676 1254.09 187.5 1252.43 189.014C1250.78 190.527 1248.84 191.7 1246.74 192.466C1244.63 193.231 1242.39 193.574 1240.15 193.476C1235.72 193.166 1231.59 191.128 1228.65 187.803C1225.71 184.478 1224.19 180.13 1224.43 175.697C1224.59 171.261 1226.48 167.066 1229.7 164.014C1232.93 160.962 1237.22 159.297 1241.66 159.378Z" fill="#5A81FA"/>
    </g>
    <defs>
        <clipPath id="clip0_345_32">
            <rect width="1258" height="199" fill="white"/>
        </clipPath>
    </defs>
</svg>
